<svg width="24" height="24" viewBox="0 0 24 24" fill="none" xmlns="http://www.w3.org/2000/svg">
<path d="M0.994975 12.1508C1.47739 12.1508 1.8995 11.7286 1.8995 11.2462V6.42211C1.8995 6.24121 2.0201 6.1206 2.201 6.1206H20.6533L18.3015 8.47236C17.9397 8.83417 17.9397 9.43719 18.3015 9.799C18.4824 9.9799 18.7236 10.1005 18.9648 10.1005C19.206 10.1005 19.4472 9.9799 19.6281 9.799L23.7286 5.69849C24.0905 5.33668 24.0905 4.73367 23.7286 4.37186L19.6281 0.271357C19.2663 -0.0904523 18.6633 -0.0904523 18.3015 0.271357C17.9397 0.633166 17.9397 1.23618 18.3015 1.59799L20.9548 4.25126H2.201C1.05528 4.25126 0.0904522 5.21608 0.0904522 6.36181V11.1859C0.0904522 11.7286 0.512563 12.1508 0.994975 12.1508ZM23.005 11.5477C22.5226 11.5477 22.1005 11.9698 22.1005 12.4523V17.2764C22.1005 17.4573 21.9799 17.5779 21.799 17.5779H3.34673L5.69849 15.2261C6.0603 14.8643 6.0603 14.2613 5.69849 13.8995C5.33668 13.5377 4.73367 13.5377 4.37186 13.8995L0.271357 18C-0.0904523 18.3618 -0.0904523 18.9648 0.271357 19.3266L4.37186 23.4271C4.55276 23.608 4.79397 23.7286 5.03518 23.7286C5.27638 23.7286 5.51759 23.608 5.69849 23.4271C6.0603 23.0653 6.0603 22.4623 5.69849 22.1005L3.04523 19.4472H21.799C22.9447 19.4472 23.9095 18.4824 23.9095 17.3367V12.5126C23.9095 11.9698 23.5477 11.5477 23.005 11.5477Z" fill="#666666"/>
</svg>
